<?xml version="1.0" encoding="utf-8"?>
<!-- Generator: Adobe Illustrator 24.1.0, SVG Export Plug-In . SVG Version: 6.00 Build 0)  -->
<svg version="1.1" id="Capa_1" xmlns="http://www.w3.org/2000/svg" xmlns:xlink="http://www.w3.org/1999/xlink" x="0px" y="0px"
	 viewBox="0 0 103.27 103.28" style="enable-background:new 0 0 103.27 103.28;" xml:space="preserve">
<style type="text/css">
	.st0{opacity:0.5;}
	.st1{fill:#E6AE4C;}
	.st2{fill:#FFFFFF;}
	.st3{fill:none;stroke:#E6AE4C;stroke-width:2;stroke-miterlimit:10;}
	.st4{fill:none;stroke:#FFFFFF;stroke-width:2;stroke-linecap:round;stroke-linejoin:round;stroke-miterlimit:10;}
	.st5{fill:#009CC9;}
	.st6{opacity:0.7;}
	.st7{fill:#B0B0AF;}
	.st8{fill:#EFEFEF;}
	.st9{fill:#C1C1C1;}
	.st10{fill:#D39B40;}
	.st11{fill:#D8D8D8;}
	.st12{fill:#2A2A2A;}
	.st13{fill:#555555;}
	.st14{fill:#CCCACD;}
	.st15{fill:#D4753A;}
	.st16{fill:#D7D7D7;}
	.st17{fill:#DCDCDC;}
	.st18{fill:#446C7E;}
	.st19{fill:#ECB843;}
	.st20{fill:#C5B178;}
	.st21{fill:#D7AC54;}
	.st22{fill:#DAB743;}
	.st23{clip-path:url(#SVGID_4_);}
	.st24{fill:#EAEAEA;}
	.st25{opacity:0.9;fill:url(#SVGID_11_);}
	.st26{fill:#232323;}
	.st27{fill:#666666;}
	.st28{fill:none;stroke:#FFFFFF;stroke-miterlimit:10;}
	.st29{fill:#1E1E1E;}
	.st30{clip-path:url(#SVGID_15_);fill:url(#SVGID_16_);}
	.st31{clip-path:url(#SVGID_18_);fill:url(#SVGID_19_);}
	.st32{clip-path:url(#SVGID_21_);fill:url(#SVGID_22_);}
	.st33{clip-path:url(#SVGID_24_);fill:url(#SVGID_25_);}
	.st34{clip-path:url(#SVGID_27_);fill:url(#SVGID_28_);}
	.st35{clip-path:url(#SVGID_30_);fill:url(#SVGID_31_);}
	.st36{clip-path:url(#SVGID_33_);fill:url(#SVGID_34_);}
</style>
<g>
	<path class="st1" d="M12.98,49.84H9.76c-1.78,0-3.23,1.44-3.23,3.23v3.23c0,1.78,1.44,3.23,3.23,3.23h3.23"/>
	<path class="st7" d="M62.98,64.36h-50V41.78c0-3.56,2.89-6.45,6.45-6.45h43.55V64.36z"/>
	<path class="st8" d="M50.08,57.91H19.43V45c0-1.78,1.44-3.23,3.23-3.23h27.42V57.91z"/>
	<path class="st7" d="M80.72,83.71H6.53V72.42c0-4.45,3.61-8.06,8.06-8.06h58.06c4.45,0,8.06,3.61,8.06,8.06V83.71z"/>
	<path class="st9" d="M67.82,64.36H14.59c-4.45,0-8.06,3.61-8.06,8.06v11.29h69.35V72.42C75.89,67.97,72.27,64.36,67.82,64.36z"/>
	<path class="st7" d="M25.89,70.81h35.48v6.45H25.89V70.81z"/>
	<path class="st9" d="M25.89,70.81h30.65v6.45H25.89V70.81z"/>
	<path class="st7" d="M25.89,77.26h35.48v6.45H25.89V77.26z"/>
	<path class="st9" d="M25.89,77.26h30.65v6.45H25.89V77.26z"/>
	<path class="st10" d="M6.53,74.04h12.9v9.68H6.53V74.04z"/>
	<path class="st1" d="M6.53,74.04h8.06v9.68H6.53V74.04z"/>
	<path class="st10" d="M67.82,74.04h12.9v9.68h-12.9V74.04z"/>
	<path class="st1" d="M67.82,74.04h8.06v9.68h-8.06V74.04z"/>
	<path class="st7" d="M3.3,83.71h80.65v6.45H3.3V83.71z"/>
	<path class="st11" d="M3.3,83.71h75.81v6.45H3.3V83.71z"/>
	<path class="st7" d="M32.34,83.71h22.58v6.45H32.34V83.71z"/>
	<path class="st8" d="M32.34,83.71h17.74v6.45H32.34V83.71z"/>
	<path class="st12" d="M74.27,99.84h-6.45c-1.78,0-3.23-1.44-3.23-3.23v-6.45h12.9v6.45C77.5,98.4,76.05,99.84,74.27,99.84z"/>
	<path class="st13" d="M72.66,96.62v-6.45h-8.06v6.45c0,1.78,1.44,3.23,3.23,3.23h1.61C71.22,99.84,72.66,98.4,72.66,96.62z"/>
	<path class="st12" d="M19.43,99.84h-6.45c-1.78,0-3.23-1.44-3.23-3.23v-6.45h12.9v6.45C22.66,98.4,21.22,99.84,19.43,99.84z"/>
	<path class="st13" d="M17.82,96.62v-6.45H9.76v6.45c0,1.78,1.44,3.23,3.23,3.23h1.61C16.38,99.84,17.82,98.4,17.82,96.62z"/>
	<path class="st1" d="M100.08,40.17v-9.68h-6.92c-0.67-3.53-2.05-6.8-3.99-9.66l4.89-4.89l-6.84-6.84l-4.89,4.89
		c-2.86-1.95-6.13-3.32-9.66-3.99V3.07h-9.68v6.92c-3.53,0.67-6.8,2.05-9.66,3.99L48.43,9.1l-6.84,6.84l4.89,4.89
		c-1.95,2.86-3.32,6.14-3.99,9.66h-6.92v9.68h6.92c0.67,3.53,2.05,6.8,3.99,9.66l-4.89,4.89l6.84,6.84l4.89-4.89
		c2.86,1.95,6.14,3.32,9.66,3.99v6.92h9.68v-6.92c3.53-0.67,6.8-2.05,9.66-3.99l4.89,4.89l6.84-6.84l-4.89-4.89
		c1.95-2.86,3.32-6.14,3.99-9.66L100.08,40.17L100.08,40.17z"/>
	<circle class="st14" cx="67.82" cy="35.33" r="19.35"/>
	<path class="st15" d="M71.05,54.68V44.65c3.76-1.39,6.45-5.11,6.45-9.49c0-4.39-2.69-8.12-6.45-9.5v9.5l-3.23,3.36l-3.23-3.36v-9.5
		c-3.76,1.38-6.45,5.12-6.45,9.5c0,4.39,2.7,8.11,6.45,9.49v10.04"/>
	<path d="M19.43,101.46h-6.45c-2.67,0-4.84-2.17-4.84-4.84v-6.45h3.23v6.45c0,0.89,0.72,1.61,1.61,1.61h6.45
		c0.89,0,1.61-0.72,1.61-1.61v-6.45h3.23v6.45C24.27,99.28,22.1,101.46,19.43,101.46z"/>
	<path d="M74.27,101.46h-6.45c-2.67,0-4.84-2.17-4.84-4.84v-6.45h3.23v6.45c0,0.89,0.72,1.61,1.61,1.61h6.45
		c0.89,0,1.61-0.72,1.61-1.61v-6.45h3.23v6.45C79.11,99.28,76.94,101.46,74.27,101.46z"/>
	<path d="M83.95,91.78H3.3c-0.89,0-1.61-0.72-1.61-1.61v-6.45c0-0.89,0.72-1.61,1.61-1.61h80.65c0.89,0,1.61,0.72,1.61,1.61v6.45
		C85.56,91.06,84.84,91.78,83.95,91.78z M4.92,88.55h77.42v-3.23H4.92V88.55z"/>
	<path d="M82.34,83.71h-3.23V72.42c0-3.56-2.89-6.45-6.45-6.45v-3.23c5.34,0,9.68,4.34,9.68,9.68V83.71z"/>
	<path d="M8.14,83.71H4.92V72.42c0-5.34,4.34-9.68,9.68-9.68h29.03v3.23H14.59c-3.56,0-6.45,2.89-6.45,6.45V83.71z"/>
	<path d="M14.59,64.36h-3.23V43.39c0-5.34,4.34-9.68,9.68-9.68h14.52v3.23H21.05c-3.56,0-6.45,2.89-6.45,6.45V64.36z"/>
	<path d="M44.78,59.52H19.43c-0.89,0-1.61-0.72-1.61-1.61V45c0-2.67,2.17-4.84,4.84-4.84h8.06v3.23h-8.06
		c-0.89,0-1.61,0.72-1.61,1.61v11.29h23.74V59.52z"/>
	<path d="M62.98,83.71h-3.23V72.42H27.5v11.29h-3.23v-12.9c0-0.89,0.72-1.61,1.61-1.61h35.48c0.89,0,1.61,0.72,1.61,1.61V83.71z"/>
	<path d="M25.89,75.65h35.48v3.23H25.89V75.65z"/>
	<path d="M12.98,61.13H9.76c-2.67,0-4.84-2.17-4.84-4.84v-3.23c0-2.67,2.17-4.84,4.84-4.84h3.23v3.23H9.76
		c-0.89,0-1.61,0.72-1.61,1.61v3.23c0,0.89,0.72,1.61,1.61,1.61h3.23V61.13z"/>
	<path d="M30.72,83.71h3.23v6.45h-3.23V83.71z"/>
	<path d="M53.3,83.71h3.23v6.45H53.3V83.71z"/>
	<path d="M72.66,54.68h-3.23V44.65c0-0.68,0.42-1.28,1.05-1.51c3.23-1.19,5.4-4.4,5.4-7.98c0-2.71-1.23-5.2-3.23-6.77v6.77
		c0,0.42-0.16,0.82-0.45,1.12l-3.23,3.36c-0.61,0.63-1.72,0.63-2.33,0l-3.23-3.36c-0.29-0.3-0.45-0.7-0.45-1.12v-6.77
		c-1.99,1.57-3.23,4.06-3.23,6.77c0,3.58,2.17,6.79,5.4,7.98c0.63,0.23,1.05,0.84,1.05,1.51v10.04h-3.23v-8.97
		c-3.9-1.92-6.45-6.02-6.45-10.55c0-4.94,3.02-9.37,7.51-11.02c0.49-0.18,1.05-0.11,1.48,0.19c0.43,0.3,0.69,0.8,0.69,1.32v8.86
		l1.61,1.68l1.61-1.68v-8.86c0-0.53,0.26-1.02,0.69-1.32c0.44-0.3,0.99-0.37,1.48-0.19c4.49,1.65,7.51,6.08,7.51,11.02
		c0,4.53-2.55,8.64-6.45,10.55V54.68z"/>
	<path d="M72.66,69.2h-9.68c-0.89,0-1.61-0.72-1.61-1.61v-5.62c-2.78-0.67-5.4-1.75-7.83-3.23l-3.97,3.97c-0.6,0.6-1.68,0.6-2.28,0
		l-6.84-6.84c-0.3-0.3-0.47-0.71-0.47-1.14s0.17-0.84,0.47-1.14l3.97-3.97c-1.48-2.43-2.57-5.05-3.23-7.83h-5.62
		c-0.89,0-1.61-0.72-1.61-1.61v-9.68c0-0.89,0.72-1.61,1.61-1.61h5.62c0.67-2.78,1.75-5.4,3.23-7.83l-3.97-3.97
		c-0.3-0.3-0.47-0.71-0.47-1.14s0.17-0.84,0.47-1.14l6.84-6.84c0.3-0.3,0.71-0.47,1.14-0.47c0.43,0,0.84,0.17,1.14,0.47l3.97,3.97
		c2.43-1.48,5.05-2.57,7.83-3.23V3.07c0-0.89,0.72-1.61,1.61-1.61h9.68c0.89,0,1.61,0.72,1.61,1.61v5.62
		c2.78,0.67,5.4,1.75,7.83,3.23l3.97-3.97c0.6-0.6,1.68-0.6,2.28,0l6.84,6.84c0.3,0.3,0.47,0.71,0.47,1.14s-0.17,0.84-0.47,1.14
		l-3.97,3.97c1.48,2.43,2.57,5.05,3.23,7.83h5.62c0.89,0,1.61,0.72,1.61,1.61v9.68c0,0.89-0.72,1.61-1.61,1.61h-5.62
		c-0.67,2.78-1.75,5.4-3.23,7.83l3.97,3.97c0.3,0.3,0.47,0.71,0.47,1.14s-0.17,0.84-0.47,1.14l-6.84,6.84
		c-0.3,0.3-0.71,0.47-1.14,0.47c-0.43,0-0.84-0.17-1.14-0.47l-3.97-3.97c-2.43,1.48-5.05,2.57-7.83,3.23v5.62
		C74.27,68.48,73.55,69.2,72.66,69.2L72.66,69.2z M64.59,65.97h6.45v-5.31c0-0.77,0.55-1.44,1.31-1.58
		c3.28-0.62,6.32-1.88,9.06-3.74c0.64-0.44,1.5-0.35,2.05,0.19l3.75,3.75l4.56-4.56l-3.75-3.75c-0.55-0.55-0.63-1.41-0.19-2.05
		c1.86-2.73,3.12-5.78,3.74-9.06c0.14-0.76,0.81-1.31,1.58-1.31h5.31V32.1h-5.31c-0.77,0-1.44-0.55-1.58-1.31
		c-0.62-3.28-1.88-6.32-3.74-9.06c-0.44-0.64-0.35-1.5,0.19-2.05l3.75-3.75l-4.56-4.56l-3.75,3.75c-0.55,0.55-1.41,0.63-2.05,0.19
		c-2.73-1.86-5.78-3.12-9.06-3.74c-0.76-0.14-1.31-0.81-1.31-1.58V4.68h-6.45v5.31c0,0.77-0.55,1.44-1.31,1.58
		c-3.28,0.62-6.32,1.88-9.06,3.74c-0.64,0.44-1.5,0.35-2.05-0.19l-3.75-3.75l-4.56,4.56l3.75,3.75c0.55,0.55,0.63,1.41,0.19,2.05
		c-1.86,2.73-3.12,5.78-3.74,9.06c-0.14,0.76-0.81,1.31-1.58,1.31h-5.31v6.45h5.31c0.77,0,1.44,0.55,1.58,1.31
		c0.62,3.28,1.88,6.32,3.74,9.06c0.44,0.64,0.35,1.5-0.19,2.05l-3.75,3.75l4.56,4.56l3.75-3.75c0.55-0.55,1.41-0.63,2.05-0.19
		c2.73,1.86,5.78,3.12,9.06,3.74c0.76,0.14,1.31,0.81,1.31,1.58L64.59,65.97z"/>
	<path d="M67.82,56.29c-11.56,0-20.97-9.41-20.97-20.97s9.41-20.97,20.97-20.97s20.97,9.41,20.97,20.97S79.38,56.29,67.82,56.29z
		 M67.82,17.58c-9.78,0-17.74,7.96-17.74,17.74s7.96,17.74,17.74,17.74s17.74-7.96,17.74-17.74S77.6,17.58,67.82,17.58z"/>
	<path d="M69.43,83.71h-3.23v-9.68c0-0.89,0.72-1.61,1.61-1.61h12.9v3.23H69.43V83.71z"/>
	<path d="M21.05,83.71h-3.23v-8.06H6.53v-3.23h12.9c0.89,0,1.61,0.72,1.61,1.61V83.71z"/>
	<path d="M53.3,62.75h9.68v3.23H53.3V62.75z"/>
</g>
</svg>
