<?xml version="1.0" encoding="utf-8"?>
<!-- Generator: Adobe Illustrator 24.1.0, SVG Export Plug-In . SVG Version: 6.00 Build 0)  -->
<svg version="1.1" id="Capa_1" xmlns="http://www.w3.org/2000/svg" xmlns:xlink="http://www.w3.org/1999/xlink" x="0px" y="0px"
	 viewBox="0 0 101.8 95.39" style="enable-background:new 0 0 101.8 95.39;" xml:space="preserve">
<style type="text/css">
	.st0{opacity:0.5;}
	.st1{fill:#E6AE4C;}
	.st2{fill:#FFFFFF;}
	.st3{fill:none;stroke:#E6AE4C;stroke-width:2;stroke-miterlimit:10;}
	.st4{fill:none;stroke:#FFFFFF;stroke-width:2;stroke-linecap:round;stroke-linejoin:round;stroke-miterlimit:10;}
	.st5{fill:#009CC9;}
	.st6{opacity:0.7;}
	.st7{fill:#B0B0AF;}
	.st8{fill:#EFEFEF;}
	.st9{fill:#C1C1C1;}
	.st10{fill:#D39B40;}
	.st11{fill:#D8D8D8;}
	.st12{fill:#2A2A2A;}
	.st13{fill:#555555;}
	.st14{fill:#CCCACD;}
	.st15{fill:#D4753A;}
	.st16{fill:#D7D7D7;}
	.st17{fill:#DCDCDC;}
	.st18{fill:#446C7E;}
	.st19{fill:#ECB843;}
	.st20{fill:#C5B178;}
	.st21{fill:#D7AC54;}
	.st22{fill:#DAB743;}
	.st23{clip-path:url(#SVGID_4_);}
	.st24{fill:#EAEAEA;}
	.st25{opacity:0.9;fill:url(#SVGID_11_);}
	.st26{fill:#232323;}
	.st27{fill:#666666;}
	.st28{fill:none;stroke:#FFFFFF;stroke-miterlimit:10;}
	.st29{fill:#1E1E1E;}
	.st30{clip-path:url(#SVGID_15_);fill:url(#SVGID_16_);}
	.st31{clip-path:url(#SVGID_18_);fill:url(#SVGID_19_);}
	.st32{clip-path:url(#SVGID_21_);fill:url(#SVGID_22_);}
	.st33{clip-path:url(#SVGID_24_);fill:url(#SVGID_25_);}
	.st34{clip-path:url(#SVGID_27_);fill:url(#SVGID_28_);}
	.st35{clip-path:url(#SVGID_30_);fill:url(#SVGID_31_);}
	.st36{clip-path:url(#SVGID_33_);fill:url(#SVGID_34_);}
</style>
<g>
	<g>
		<g>
			<path class="st15" d="M27.27,49.02v23.97h-5.92h-0.33c-3.11,0-5.67-2.26-6.17-5.22l0.02-0.02L12.74,55.1l-1.02-6.05
				c-0.05-0.36-0.08-0.7-0.08-1.06v-0.02c0-0.38,0.03-0.72,0.08-1.06l3.14-18.72h-0.02c0.5-2.97,3.06-5.23,6.17-5.23v0.02h6.25
				v23.98C27.25,47.64,27.25,48.33,27.27,49.02z"/>
		</g>
		<g>
			<path class="st16" d="M27.27,22.97v-6.25l-2.17-3.8l-4.08-7.14c-6.91,0-12.5,5.58-12.5,12.5v21.87l-6.25,4.69v6.25l6.25,4.7
				v21.86v0.02c0.02,6.92,5.59,12.48,12.5,12.48l4.06-7.11l2.19-3.83v-6.23h-5.92h-0.33c-3.11,0-5.67-2.26-6.17-5.22l0.02-0.02
				L12.74,55.1l-1.02-6.05c-0.05-0.36-0.08-0.7-0.08-1.06v-0.02c0-0.38,0.03-0.72,0.08-1.06l3.14-18.72h-0.02
				c0.5-2.97,3.06-5.23,6.17-5.23v0.02L27.27,22.97z"/>
		</g>
		<g>
			<path class="st17" d="M79.11,39.83C76.6,32,70.47,25.44,62.03,22.7c-2.7-0.88-5.45-1.3-8.16-1.31
				c-11.22-0.02-21.66,7.12-25.31,18.37c-0.78,2.38-1.19,4.8-1.3,7.19v2.06c0.44,10.8,7.48,20.69,18.36,24.22
				c13.94,4.53,28.94-3.11,33.47-17.06C80.89,50.66,80.78,44.97,79.11,39.83L79.11,39.83z M53.83,24.53c1.73,0,3.12,1.41,3.12,3.12
				s-1.39,3.12-3.12,3.12c-1.72,0-3.12-1.41-3.12-3.12S52.11,24.53,53.83,24.53z M37.49,42.66c-0.53,1.64-2.3,2.53-3.94,2
				c-1.64-0.53-2.55-2.3-2.01-3.94c0.55-1.64,2.3-2.53,3.94-2c1.48,0.48,2.36,1.97,2.14,3.47C37.58,42.35,37.55,42.5,37.49,42.66
				L37.49,42.66z M44.41,66.23c-1.01,1.39-2.97,1.7-4.36,0.69c-1.39-1.01-1.7-2.97-0.69-4.36c1.01-1.39,2.97-1.7,4.36-0.69
				C45.11,62.89,45.42,64.85,44.41,66.23z M39.77,47.97c0-1.94,0.39-3.8,1.11-5.47C43,37.45,48,33.91,53.83,33.91
				c6.06,0,11.23,3.84,13.2,9.23c0.56,1.5,0.86,3.14,0.86,4.83c0,7.77-6.31,14.06-14.06,14.06C46.06,62.03,39.77,55.74,39.77,47.97
				L39.77,47.97z M67.6,66.94c-1.39,1.01-3.34,0.7-4.36-0.69c-1.01-1.41-0.7-3.36,0.69-4.37c1.41-1.02,3.36-0.7,4.36,0.69
				C69.3,63.97,69,65.92,67.6,66.94z M74.11,44.67c-1.64,0.53-3.41-0.38-3.94-2.02c-0.53-1.64,0.36-3.41,2.02-3.94
				c1.62-0.53,3.39,0.37,3.92,2.02C76.66,42.38,75.75,44.14,74.11,44.67z"/>
		</g>
		<g>
			<path class="st1" d="M27.27,79.22v-6.23V49.02c0.44,10.8,7.48,20.69,18.36,24.22c13.94,4.53,28.94-3.11,33.47-17.06
				c1.8-5.51,1.69-11.2,0.02-16.34C76.6,32,70.47,25.44,62.03,22.7c-2.7-0.88-5.45-1.3-8.16-1.31
				c-11.22-0.02-21.66,7.12-25.31,18.37c-0.78,2.38-1.19,4.8-1.3,7.19V22.97v-6.25l-2.17-3.8C32.92,6.52,42.92,2.66,53.83,2.66
				c25.03,0,45.31,20.28,45.31,45.31S78.86,93.28,53.83,93.28c-10.73,0-20.97-3.97-28.75-10.23L27.27,79.22z"/>
		</g>
	</g>
	<g>
		<g>
			<path d="M53.83,94.85c-10.69,0-21.25-3.75-29.73-10.58c-0.67-0.54-0.78-1.53-0.24-2.2c0.54-0.67,1.52-0.78,2.2-0.24
				c7.93,6.37,17.79,9.88,27.77,9.88c24.12,0,43.75-19.63,43.75-43.75S77.95,4.22,53.83,4.22c-10.1,0-19.95,3.52-27.74,9.92
				c-0.67,0.55-1.65,0.45-2.2-0.22c-0.55-0.67-0.45-1.65,0.22-2.2C32.46,4.87,43.01,1.1,53.83,1.1c25.85,0,46.87,21.03,46.87,46.87
				S79.68,94.85,53.83,94.85z"/>
		</g>
		<g>
			<path d="M21.02,91.73c-7.75,0-14.06-6.31-14.06-14.06c0-0.86,0.7-1.56,1.56-1.56s1.56,0.7,1.56,1.56
				c0,6.03,4.91,10.94,10.94,10.94c0.86,0,1.56,0.7,1.56,1.56C22.59,91.03,21.89,91.73,21.02,91.73z"/>
		</g>
		<g>
			<path d="M8.52,19.84c-0.86,0-1.56-0.7-1.56-1.56c0-7.75,6.31-14.06,14.06-14.06c0.86,0,1.56,0.7,1.56,1.56s-0.7,1.56-1.56,1.56
				c-6.03,0-10.94,4.91-10.94,10.94C10.09,19.14,9.39,19.84,8.52,19.84z"/>
		</g>
		<g>
			<path d="M8.52,79.23c-0.86,0-1.56-0.7-1.56-1.56V55.8c0-0.86,0.7-1.56,1.56-1.56s1.56,0.7,1.56,1.56v21.87
				C10.09,78.53,9.39,79.23,8.52,79.23L8.52,79.23z"/>
		</g>
		<g>
			<path d="M21.02,91.73c-0.26,0-0.53-0.07-0.77-0.21c-0.75-0.43-1.01-1.38-0.58-2.13l6.25-10.94c0.43-0.75,1.38-1.01,2.13-0.58
				c0.75,0.43,1.01,1.38,0.58,2.13l-6.25,10.94C22.09,91.44,21.56,91.73,21.02,91.73z"/>
		</g>
		<g>
			<path d="M27.27,18.29c-0.54,0-1.07-0.28-1.36-0.79L19.66,6.56c-0.43-0.75-0.17-1.7,0.58-2.13s1.7-0.17,2.13,0.58l6.25,10.94
				c0.43,0.75,0.17,1.7-0.58,2.13C27.8,18.22,27.53,18.29,27.27,18.29z"/>
		</g>
		<g>
			<path d="M27.27,80.78c-0.86,0-1.56-0.7-1.56-1.56V16.73c0-0.86,0.7-1.56,1.56-1.56s1.56,0.7,1.56,1.56v62.49
				C28.83,80.08,28.13,80.78,27.27,80.78z"/>
		</g>
		<g>
			<path d="M11.71,50.61c-0.77,0-1.44-0.57-1.55-1.35c-0.06-0.42-0.09-0.85-0.09-1.29c0-0.86,0.7-1.56,1.56-1.56s1.56,0.7,1.56,1.56
				c0,0.29,0.02,0.58,0.06,0.86c0.12,0.85-0.48,1.64-1.33,1.76C11.86,50.61,11.79,50.61,11.71,50.61L11.71,50.61z"/>
		</g>
		<g>
			<path d="M21.02,74.55c-3.85,0-7.09-2.75-7.71-6.54c-0.14-0.85,0.44-1.66,1.29-1.79c0.85-0.15,1.66,0.44,1.79,1.29
				c0.37,2.27,2.32,3.92,4.63,3.92c0.86,0,1.56,0.7,1.56,1.56C22.58,73.86,21.89,74.55,21.02,74.55L21.02,74.55z"/>
		</g>
		<g>
			<path d="M8.52,57.36c-0.33,0-0.66-0.1-0.94-0.31l-6.26-4.7c-0.69-0.52-0.83-1.5-0.31-2.19c0.52-0.69,1.5-0.83,2.19-0.31l6.26,4.7
				c0.69,0.52,0.83,1.5,0.31,2.19C9.47,57.14,9,57.36,8.52,57.36L8.52,57.36z"/>
		</g>
		<g>
			<path d="M2.27,46.41c-0.48,0-0.94-0.22-1.25-0.62C0.5,45.1,0.64,44.12,1.33,43.6l6.26-4.7c0.69-0.52,1.67-0.38,2.19,0.31
				c0.52,0.69,0.38,1.67-0.31,2.19l-6.26,4.7C2.93,46.31,2.6,46.41,2.27,46.41z"/>
		</g>
		<g>
			<path d="M2.27,52.66c-0.86,0-1.56-0.7-1.56-1.56v-6.25c0-0.86,0.7-1.56,1.56-1.56s1.56,0.7,1.56,1.56v6.25
				C3.83,51.96,3.13,52.66,2.27,52.66z"/>
		</g>
		<g>
			<path d="M8.52,41.71c-0.86,0-1.56-0.7-1.56-1.56V18.28c0-0.86,0.7-1.56,1.56-1.56s1.56,0.7,1.56,1.56v21.87
				C10.09,41.01,9.39,41.71,8.52,41.71z"/>
		</g>
		<g>
			<path d="M14.86,69.32c-0.75,0-1.41-0.54-1.54-1.3l-3.14-18.71c-0.14-0.85,0.43-1.66,1.28-1.8c0.86-0.15,1.66,0.43,1.8,1.28
				L16.4,67.5c0.14,0.85-0.43,1.66-1.28,1.8C15.03,69.31,14.94,69.32,14.86,69.32z"/>
		</g>
		<g>
			<path d="M11.64,49.54c-0.86,0-1.56-0.7-1.56-1.56c0-0.44,0.03-0.87,0.09-1.29c0.12-0.85,0.9-1.46,1.76-1.33
				c0.85,0.12,1.45,0.91,1.33,1.76c-0.04,0.28-0.06,0.57-0.06,0.86C13.21,48.84,12.51,49.54,11.64,49.54z"/>
		</g>
		<g>
			<path d="M14.86,29.75c-0.08,0-0.17-0.01-0.25-0.02c-0.85-0.14-1.43-0.94-1.29-1.8c0.62-3.79,3.86-6.54,7.71-6.54
				c0.86,0,1.56,0.7,1.56,1.56c0,0.86-0.7,1.56-1.56,1.56c-2.31,0-4.25,1.65-4.63,3.92C16.27,29.21,15.61,29.75,14.86,29.75z"/>
		</g>
		<g>
			<path d="M11.72,48.47c-0.09,0-0.17-0.01-0.26-0.02c-0.85-0.14-1.43-0.95-1.28-1.8l3.14-18.71c0.14-0.85,0.93-1.43,1.8-1.28
				c0.85,0.14,1.42,0.95,1.28,1.8l-3.14,18.71C13.13,47.93,12.47,48.47,11.72,48.47z"/>
		</g>
		<g>
			<path d="M27.27,74.55h-5.93c-0.86,0-1.56-0.7-1.56-1.56c0-0.86,0.7-1.56,1.56-1.56h5.93c0.86,0,1.56,0.7,1.56,1.56
				C28.83,73.86,28.13,74.55,27.27,74.55z"/>
		</g>
		<g>
			<path d="M27.27,24.53h-6.25c-0.86,0-1.56-0.7-1.56-1.56c0-0.86,0.7-1.56,1.56-1.56h6.25c0.86,0,1.56,0.7,1.56,1.56
				C28.83,23.83,28.13,24.53,27.27,24.53z"/>
		</g>
		<g>
			<path d="M21.02,68.28c-0.86,0-1.56-0.7-1.56-1.56V30.78c0-0.86,0.7-1.56,1.56-1.56s1.56,0.7,1.56,1.56v35.94
				C22.58,67.58,21.88,68.28,21.02,68.28z"/>
		</g>
		<g>
			<path d="M53.83,63.6c-8.62,0-15.62-7.01-15.62-15.62s7.01-15.62,15.62-15.62s15.62,7.01,15.62,15.62S62.44,63.6,53.83,63.6z
				 M53.83,35.47c-6.89,0-12.5,5.61-12.5,12.5s5.61,12.5,12.5,12.5s12.5-5.61,12.5-12.5S60.72,35.47,53.83,35.47z"/>
		</g>
		<g>
			<path d="M53.83,32.35c-2.58,0-4.69-2.1-4.69-4.69s2.1-4.69,4.69-4.69c2.58,0,4.69,2.1,4.69,4.69S56.42,32.35,53.83,32.35z
				 M53.83,26.1c-0.86,0-1.56,0.7-1.56,1.56c0,0.86,0.7,1.56,1.56,1.56c0.86,0,1.56-0.7,1.56-1.56C55.39,26.8,54.69,26.1,53.83,26.1
				z"/>
		</g>
		<g>
			<path d="M73.15,46.38c-2.04,0-3.83-1.3-4.46-3.24c-0.39-1.19-0.29-2.46,0.28-3.58c0.57-1.12,1.54-1.94,2.73-2.33
				c0.47-0.15,0.96-0.23,1.45-0.23c2.03,0,3.83,1.3,4.46,3.24c0.39,1.19,0.29,2.46-0.28,3.58c-0.57,1.12-1.54,1.94-2.73,2.33
				C74.13,46.31,73.64,46.38,73.15,46.38L73.15,46.38z M73.15,40.13c-0.16,0-0.33,0.03-0.48,0.08c-0.4,0.13-0.72,0.4-0.91,0.78
				c-0.19,0.37-0.22,0.79-0.1,1.19c0.26,0.8,1.16,1.27,1.97,1c0.4-0.13,0.72-0.4,0.91-0.78c0.19-0.37,0.22-0.8,0.09-1.19
				C74.42,40.57,73.83,40.13,73.15,40.13L73.15,40.13z"/>
		</g>
		<g>
			<path d="M65.77,69.09c-1.5,0-2.91-0.72-3.79-1.93c-1.52-2.09-1.05-5.03,1.04-6.55c2.03-1.47,5.08-0.98,6.55,1.04
				c0.74,1.01,1.03,2.25,0.84,3.49c-0.2,1.24-0.86,2.32-1.87,3.06C67.71,68.78,66.76,69.09,65.77,69.09L65.77,69.09z M65.76,62.84
				c-0.33,0-0.65,0.1-0.92,0.3c-0.7,0.51-0.85,1.49-0.34,2.18c0.3,0.41,0.76,0.64,1.27,0.64c0.33,0,0.65-0.1,0.92-0.3
				c0.34-0.25,0.56-0.61,0.62-1.02c0.06-0.41-0.03-0.82-0.28-1.16C66.73,63.08,66.27,62.84,65.76,62.84L65.76,62.84z"/>
		</g>
		<g>
			<path d="M41.88,69.09c-1,0-1.95-0.31-2.75-0.9c-2.09-1.52-2.56-4.45-1.04-6.54c1.47-2.02,4.53-2.51,6.55-1.04
				c2.09,1.52,2.55,4.46,1.03,6.55C44.8,68.37,43.38,69.09,41.88,69.09z M41.89,62.84c-0.51,0-0.97,0.23-1.27,0.65
				c-0.5,0.7-0.35,1.67,0.35,2.18c0.68,0.5,1.69,0.33,2.18-0.34c0.51-0.7,0.36-1.68-0.34-2.18C42.54,62.94,42.22,62.84,41.89,62.84
				L41.89,62.84z"/>
		</g>
		<g>
			<path d="M53.83,76.1c-2.94,0-5.87-0.47-8.69-1.38c-7.14-2.32-12.96-7.28-16.37-13.98c-3.41-6.69-4.01-14.32-1.69-21.46
				c3.78-11.63,14.53-19.44,26.74-19.44c2.95,0,5.87,0.47,8.7,1.38c7.14,2.32,12.95,7.28,16.37,13.98
				c3.41,6.7,4.01,14.32,1.69,21.46C76.8,68.29,66.05,76.1,53.83,76.1L53.83,76.1z M53.82,22.96c-10.86,0-20.41,6.94-23.77,17.28
				c-2.06,6.35-1.53,13.12,1.5,19.07c3.03,5.95,8.2,10.37,14.55,12.43c2.51,0.82,5.11,1.23,7.72,1.23
				c10.86,0,20.42-6.94,23.78-17.28c2.06-6.35,1.53-13.12-1.5-19.07c-3.03-5.95-8.2-10.37-14.55-12.43
				C59.04,23.38,56.44,22.96,53.82,22.96L53.82,22.96z"/>
		</g>
		<g>
			<path d="M34.51,46.38c-0.49,0-0.98-0.08-1.45-0.23c-1.19-0.39-2.16-1.21-2.73-2.33c-0.57-1.11-0.67-2.38-0.28-3.58
				C30.68,38.3,32.47,37,34.51,37c0.49,0,0.98,0.08,1.45,0.23c2.46,0.8,3.81,3.45,3.01,5.91C38.34,45.08,36.55,46.38,34.51,46.38
				L34.51,46.38z M34.51,40.13c-0.68,0-1.27,0.44-1.48,1.08c-0.13,0.4-0.1,0.82,0.1,1.19c0.19,0.37,0.51,0.65,0.91,0.78
				c0.82,0.27,1.71-0.2,1.97-1c0.13-0.4,0.1-0.82-0.1-1.19c-0.19-0.37-0.51-0.65-0.91-0.78C34.84,40.15,34.67,40.13,34.51,40.13
				L34.51,40.13z"/>
		</g>
		<g>
			<path d="M85.13,49.53c-0.86,0-1.57-0.7-1.57-1.56c0-0.86,0.69-1.56,1.55-1.56h0.02c0.86,0,1.56,0.7,1.56,1.56
				C86.69,48.83,85.99,49.53,85.13,49.53z"/>
		</g>
		<g>
			<path d="M89.82,51.1c-0.86,0-1.57-0.7-1.57-1.56c0-0.86,0.69-1.56,1.55-1.56h0.02c0.86,0,1.56,0.7,1.56,1.56
				C91.38,50.4,90.68,51.1,89.82,51.1z"/>
		</g>
		<g>
			<path d="M94.51,52.66c-0.86,0-1.57-0.7-1.57-1.56c0-0.86,0.69-1.56,1.55-1.56h0.02c0.86,0,1.56,0.7,1.56,1.56
				C96.08,51.96,95.38,52.66,94.51,52.66z"/>
		</g>
		<g>
			<path d="M84.06,41.44c-0.86,0-1.57-0.7-1.57-1.56s0.69-1.56,1.55-1.56h0.02c0.86,0,1.56,0.7,1.56,1.56S84.92,41.44,84.06,41.44z"
				/>
		</g>
		<g>
			<path d="M89,41.74c-0.86,0-1.57-0.7-1.57-1.56s0.69-1.56,1.55-1.56H89c0.86,0,1.56,0.7,1.56,1.56S89.86,41.74,89,41.74z"/>
		</g>
		<g>
			<path d="M93.94,42.03c-0.86,0-1.57-0.7-1.57-1.56c0-0.86,0.69-1.56,1.55-1.56h0.02c0.86,0,1.56,0.7,1.56,1.56
				C95.5,41.33,94.8,42.03,93.94,42.03z"/>
		</g>
		<g>
			<path d="M80.94,33.9c-0.86,0-1.57-0.7-1.57-1.56s0.69-1.56,1.55-1.56h0.02c0.86,0,1.56,0.7,1.56,1.56S81.8,33.9,80.94,33.9z"/>
		</g>
		<g>
			<path d="M85.79,32.91c-0.86,0-1.57-0.7-1.57-1.56c0-0.86,0.69-1.56,1.55-1.56h0.02c0.86,0,1.56,0.7,1.56,1.56
				C87.35,32.21,86.65,32.91,85.79,32.91z"/>
		</g>
		<g>
			<path d="M90.63,31.92c-0.86,0-1.57-0.7-1.57-1.56s0.69-1.56,1.55-1.56h0.02c0.86,0,1.56,0.7,1.56,1.56S91.49,31.92,90.63,31.92z"
				/>
		</g>
		<g>
			<path d="M75.97,27.43c-0.86,0-1.57-0.7-1.57-1.56c0-0.86,0.69-1.56,1.55-1.56h0.02c0.86,0,1.56,0.7,1.56,1.56
				C77.54,26.73,76.84,27.43,75.97,27.43z"/>
		</g>
		<g>
			<path d="M80.4,25.22c-0.86,0-1.57-0.7-1.57-1.56s0.69-1.56,1.55-1.56h0.02c0.86,0,1.56,0.7,1.56,1.56S81.26,25.22,80.4,25.22z"/>
		</g>
		<g>
			<path d="M84.82,23.01c-0.86,0-1.57-0.7-1.57-1.56c0-0.86,0.69-1.56,1.55-1.56h0.02c0.86,0,1.56,0.7,1.56,1.56
				C86.38,22.31,85.68,23.01,84.82,23.01z"/>
		</g>
		<g>
			<path d="M69.5,22.47c-0.86,0-1.57-0.7-1.57-1.56s0.69-1.56,1.55-1.56h0.02c0.86,0,1.56,0.7,1.56,1.56S70.36,22.47,69.5,22.47z"/>
		</g>
		<g>
			<path d="M73.2,19.19c-0.86,0-1.57-0.7-1.57-1.56s0.69-1.56,1.55-1.56h0.02c0.86,0,1.56,0.7,1.56,1.56S74.06,19.19,73.2,19.19z"/>
		</g>
		<g>
			<path d="M76.9,15.9c-0.86,0-1.57-0.7-1.57-1.56c0-0.86,0.69-1.56,1.55-1.56h0.02c0.86,0,1.56,0.7,1.56,1.56
				C78.46,15.2,77.76,15.9,76.9,15.9z"/>
		</g>
		<g>
			<path d="M61.96,19.35c-0.86,0-1.57-0.7-1.57-1.56c0-0.86,0.69-1.56,1.55-1.56h0.02c0.86,0,1.56,0.7,1.56,1.56
				C63.52,18.65,62.82,19.35,61.96,19.35z"/>
		</g>
		<g>
			<path d="M64.69,15.22c-0.86,0-1.57-0.7-1.57-1.56c0-0.86,0.69-1.56,1.55-1.56h0.02c0.86,0,1.56,0.7,1.56,1.56
				C66.25,14.52,65.55,15.22,64.69,15.22z"/>
		</g>
		<g>
			<path d="M67.41,11.09c-0.86,0-1.57-0.7-1.57-1.56s0.69-1.56,1.55-1.56h0.02c0.86,0,1.56,0.7,1.56,1.56S68.27,11.09,67.41,11.09z"
				/>
		</g>
		<g>
			<path d="M53.87,18.28c-0.86,0-1.57-0.7-1.57-1.56c0-0.86,0.69-1.56,1.55-1.56h0.02c0.86,0,1.56,0.7,1.56,1.56
				C55.44,17.58,54.74,18.28,53.87,18.28z"/>
		</g>
		<g>
			<path d="M55.44,13.59c-0.86,0-1.57-0.7-1.57-1.56c0-0.86,0.69-1.56,1.55-1.56h0.02c0.86,0,1.56,0.7,1.56,1.56
				C57,12.89,56.3,13.59,55.44,13.59z"/>
		</g>
		<g>
			<path d="M56.99,8.9c-0.86,0-1.57-0.7-1.57-1.56s0.69-1.56,1.55-1.56h0.02c0.86,0,1.56,0.7,1.56,1.56S57.86,8.9,56.99,8.9z"/>
		</g>
		<g>
			<path d="M45.79,19.35c-0.86,0-1.57-0.7-1.57-1.56s0.69-1.56,1.55-1.56h0.02c0.86,0,1.56,0.7,1.56,1.56S46.65,19.35,45.79,19.35z"
				/>
		</g>
		<g>
			<path d="M46.08,14.41c-0.86,0-1.57-0.7-1.57-1.56c0-0.86,0.69-1.56,1.55-1.56h0.02c0.86,0,1.56,0.7,1.56,1.56
				C47.64,13.71,46.94,14.41,46.08,14.41z"/>
		</g>
		<g>
			<path d="M46.37,9.48c-0.86,0-1.57-0.7-1.57-1.56s0.69-1.56,1.55-1.56h0.02c0.86,0,1.56,0.7,1.56,1.56S47.23,9.48,46.37,9.48z"/>
		</g>
		<g>
			<path d="M38.25,22.47c-0.86,0-1.57-0.7-1.57-1.56s0.69-1.56,1.55-1.56h0.02c0.86,0,1.56,0.7,1.56,1.56S39.11,22.47,38.25,22.47z"
				/>
		</g>
		<g>
			<path d="M37.26,17.63c-0.86,0-1.57-0.7-1.57-1.56c0-0.86,0.69-1.56,1.55-1.56h0.02c0.86,0,1.56,0.7,1.56,1.56
				C38.82,16.93,38.12,17.63,37.26,17.63z"/>
		</g>
		<g>
			<path d="M36.26,12.79c-0.86,0-1.57-0.7-1.57-1.56s0.69-1.56,1.55-1.56h0.02c0.86,0,1.56,0.7,1.56,1.56S37.12,12.79,36.26,12.79z"
				/>
		</g>
		<g>
			<path d="M31.78,27.44c-0.86,0-1.57-0.7-1.57-1.56s0.69-1.56,1.55-1.56h0.02c0.86,0,1.56,0.7,1.56,1.56S32.64,27.44,31.78,27.44z"
				/>
		</g>
		<g>
			<path d="M29.56,23.01c-0.86,0-1.57-0.7-1.57-1.56c0-0.86,0.69-1.56,1.55-1.56h0.02c0.86,0,1.56,0.7,1.56,1.56
				C31.13,22.31,30.43,23.01,29.56,23.01z"/>
		</g>
		<g>
			<path d="M31.78,71.64c-0.86,0-1.57-0.7-1.57-1.56s0.69-1.56,1.55-1.56h0.02c0.86,0,1.56,0.7,1.56,1.56S32.64,71.64,31.78,71.64z"
				/>
		</g>
		<g>
			<path d="M38.25,76.6c-0.86,0-1.57-0.7-1.57-1.56s0.69-1.56,1.55-1.56h0.02c0.86,0,1.56,0.7,1.56,1.56S39.11,76.6,38.25,76.6z"/>
		</g>
		<g>
			<path d="M34.55,79.89c-0.86,0-1.57-0.7-1.57-1.56c0-0.86,0.69-1.56,1.55-1.56h0.02c0.86,0,1.56,0.7,1.56,1.56
				C36.11,79.19,35.41,79.89,34.55,79.89z"/>
		</g>
		<g>
			<path d="M30.86,83.17c-0.86,0-1.57-0.7-1.57-1.56c0-0.86,0.69-1.56,1.55-1.56h0.02c0.86,0,1.56,0.7,1.56,1.56
				C32.42,82.47,31.72,83.17,30.86,83.17z"/>
		</g>
		<g>
			<path d="M45.79,79.73c-0.86,0-1.57-0.7-1.57-1.56c0-0.86,0.69-1.56,1.55-1.56h0.02c0.86,0,1.56,0.7,1.56,1.56
				C47.35,79.03,46.65,79.73,45.79,79.73z"/>
		</g>
		<g>
			<path d="M43.06,83.86c-0.86,0-1.57-0.7-1.57-1.56c0-0.86,0.69-1.56,1.55-1.56h0.02c0.86,0,1.56,0.7,1.56,1.56
				C44.63,83.16,43.93,83.86,43.06,83.86z"/>
		</g>
		<g>
			<path d="M40.34,87.98c-0.86,0-1.57-0.7-1.57-1.56c0-0.86,0.69-1.56,1.55-1.56h0.02c0.86,0,1.56,0.7,1.56,1.56
				C41.91,87.28,41.21,87.98,40.34,87.98z"/>
		</g>
		<g>
			<path d="M53.88,80.79c-0.86,0-1.57-0.7-1.57-1.56s0.69-1.56,1.55-1.56h0.02c0.86,0,1.56,0.7,1.56,1.56S54.74,80.79,53.88,80.79z"
				/>
		</g>
		<g>
			<path d="M52.31,85.49c-0.86,0-1.57-0.7-1.57-1.56c0-0.86,0.69-1.56,1.55-1.56h0.02c0.86,0,1.56,0.7,1.56,1.56
				C53.88,84.79,53.18,85.49,52.31,85.49z"/>
		</g>
		<g>
			<path d="M50.75,90.17c-0.86,0-1.57-0.7-1.57-1.56c0-0.86,0.69-1.56,1.55-1.56h0.02c0.86,0,1.56,0.7,1.56,1.56
				C52.32,89.47,51.62,90.17,50.75,90.17L50.75,90.17z"/>
		</g>
		<g>
			<path d="M61.97,79.73c-0.86,0-1.57-0.7-1.57-1.56c0-0.86,0.69-1.56,1.55-1.56h0.02c0.86,0,1.56,0.7,1.56,1.56
				C63.53,79.03,62.83,79.73,61.97,79.73z"/>
		</g>
		<g>
			<path d="M61.67,84.66c-0.86,0-1.57-0.7-1.57-1.56c0-0.86,0.69-1.56,1.55-1.56h0.02c0.86,0,1.56,0.7,1.56,1.56
				C63.24,83.97,62.53,84.66,61.67,84.66z"/>
		</g>
		<g>
			<path d="M61.38,89.6c-0.86,0-1.57-0.7-1.57-1.56c0-0.86,0.69-1.56,1.55-1.56h0.02c0.86,0,1.56,0.7,1.56,1.56
				C62.94,88.9,62.24,89.6,61.38,89.6z"/>
		</g>
		<g>
			<path d="M69.51,76.6c-0.86,0-1.57-0.7-1.57-1.56c0-0.86,0.69-1.56,1.55-1.56h0.02c0.86,0,1.56,0.7,1.56,1.56
				C71.07,75.9,70.37,76.6,69.51,76.6z"/>
		</g>
		<g>
			<path d="M70.5,81.45c-0.86,0-1.57-0.7-1.57-1.56c0-0.86,0.69-1.56,1.55-1.56h0.02c0.86,0,1.56,0.7,1.56,1.56
				C72.06,80.75,71.36,81.45,70.5,81.45z"/>
		</g>
		<g>
			<path d="M71.49,86.29c-0.86,0-1.57-0.7-1.57-1.56s0.69-1.56,1.55-1.56h0.02c0.86,0,1.56,0.7,1.56,1.56S72.35,86.29,71.49,86.29z"
				/>
		</g>
		<g>
			<path d="M75.98,71.64c-0.86,0-1.57-0.7-1.57-1.56c0-0.86,0.69-1.56,1.55-1.56h0.02c0.86,0,1.56,0.7,1.56,1.56
				C77.54,70.94,76.84,71.64,75.98,71.64z"/>
		</g>
		<g>
			<path d="M78.19,76.06c-0.86,0-1.57-0.7-1.57-1.56c0-0.86,0.69-1.56,1.55-1.56h0.02c0.86,0,1.56,0.7,1.56,1.56
				C79.76,75.36,79.06,76.06,78.19,76.06z"/>
		</g>
		<g>
			<path d="M80.4,80.48c-0.86,0-1.57-0.7-1.57-1.56c0-0.86,0.69-1.56,1.55-1.56h0.02c0.86,0,1.56,0.7,1.56,1.56
				C81.97,79.78,81.27,80.48,80.4,80.48z"/>
		</g>
		<g>
			<path d="M80.95,65.16c-0.86,0-1.57-0.7-1.57-1.56c0-0.86,0.69-1.56,1.55-1.56h0.02c0.86,0,1.56,0.7,1.56,1.56
				C82.51,64.46,81.81,65.16,80.95,65.16z"/>
		</g>
		<g>
			<path d="M84.23,68.86c-0.86,0-1.57-0.7-1.57-1.56c0-0.86,0.69-1.56,1.55-1.56h0.02c0.86,0,1.56,0.7,1.56,1.56
				C85.79,68.17,85.09,68.86,84.23,68.86z"/>
		</g>
		<g>
			<path d="M87.51,72.56c-0.86,0-1.57-0.7-1.57-1.56c0-0.86,0.69-1.56,1.55-1.56h0.02c0.86,0,1.56,0.7,1.56,1.56
				C89.07,71.86,88.37,72.56,87.51,72.56z"/>
		</g>
		<g>
			<path d="M84.07,57.62c-0.86,0-1.57-0.7-1.57-1.56c0-0.86,0.69-1.56,1.55-1.56h0.02c0.86,0,1.56,0.7,1.56,1.56
				C85.63,56.93,84.93,57.62,84.07,57.62z"/>
		</g>
		<g>
			<path d="M88.2,60.35c-0.86,0-1.57-0.7-1.57-1.56c0-0.86,0.69-1.56,1.55-1.56h0.02c0.86,0,1.56,0.7,1.56,1.56
				C89.76,59.65,89.06,60.35,88.2,60.35z"/>
		</g>
		<g>
			<path d="M92.32,63.07c-0.86,0-1.57-0.7-1.57-1.56c0-0.86,0.69-1.56,1.55-1.56h0.02c0.86,0,1.56,0.7,1.56,1.56
				C93.88,62.37,93.18,63.07,92.32,63.07z"/>
		</g>
	</g>
</g>
</svg>
