<?xml version="1.0" encoding="utf-8"?>
<!-- Generator: Adobe Illustrator 24.1.0, SVG Export Plug-In . SVG Version: 6.00 Build 0)  -->
<svg version="1.1" id="Capa_1" xmlns="http://www.w3.org/2000/svg" xmlns:xlink="http://www.w3.org/1999/xlink" x="0px" y="0px"
	 viewBox="0 0 242.65 198.52" style="enable-background:new 0 0 242.65 198.52;" xml:space="preserve">
<style type="text/css">
	.st0{opacity:0.5;}
	.st1{fill:#E6AE4C;}
	.st2{fill:#FFFFFF;}
	.st3{fill:none;stroke:#E6AE4C;stroke-width:2;stroke-miterlimit:10;}
	.st4{fill:none;stroke:#FFFFFF;stroke-width:2;stroke-linecap:round;stroke-linejoin:round;stroke-miterlimit:10;}
	.st5{fill:#009CC9;}
	.st6{opacity:0.7;}
	.st7{fill:#B0B0AF;}
	.st8{fill:#EFEFEF;}
	.st9{fill:#C1C1C1;}
	.st10{fill:#D39B40;}
	.st11{fill:#D8D8D8;}
	.st12{fill:#2A2A2A;}
	.st13{fill:#555555;}
	.st14{fill:#CCCACD;}
	.st15{fill:#D4753A;}
	.st16{fill:#D7D7D7;}
	.st17{fill:#DCDCDC;}
	.st18{fill:#446C7E;}
	.st19{fill:#ECB843;}
	.st20{fill:#C5B178;}
	.st21{fill:#D7AC54;}
	.st22{fill:#DAB743;}
	.st23{clip-path:url(#SVGID_4_);}
	.st24{fill:#EAEAEA;}
	.st25{opacity:0.9;fill:url(#SVGID_11_);}
	.st26{fill:#232323;}
	.st27{fill:#666666;}
	.st28{fill:none;stroke:#FFFFFF;stroke-miterlimit:10;}
	.st29{fill:#1E1E1E;}
	.st30{clip-path:url(#SVGID_15_);fill:url(#SVGID_16_);}
	.st31{clip-path:url(#SVGID_18_);fill:url(#SVGID_19_);}
	.st32{clip-path:url(#SVGID_21_);fill:url(#SVGID_22_);}
	.st33{clip-path:url(#SVGID_24_);fill:url(#SVGID_25_);}
	.st34{clip-path:url(#SVGID_27_);fill:url(#SVGID_28_);}
	.st35{clip-path:url(#SVGID_30_);fill:url(#SVGID_31_);}
	.st36{clip-path:url(#SVGID_33_);fill:url(#SVGID_34_);}
</style>
<g>
	<path class="st1" d="M124.84,52.29c-8.8,1.63-17.27-4.18-18.9-12.96c-1.63-8.77,4.21-17.24,13-18.87
		c8.8-1.63,17.27,4.18,18.9,12.96C139.47,42.2,133.63,50.66,124.84,52.29z M117.97,15.22c-11.69,2.17-19.45,13.42-17.29,25.08
		c2.16,11.67,13.43,19.39,25.13,17.23c11.69-2.17,19.45-13.42,17.29-25.08C140.94,20.78,129.67,13.06,117.97,15.22z"/>
	<path class="st1" d="M126.06,58.88c-12.44,2.3-24.43-5.92-26.72-18.32c-2.3-12.41,5.95-24.38,18.39-26.68
		c12.44-2.3,24.43,5.92,26.72,18.32C146.75,44.61,138.5,56.58,126.06,58.88z M153.16,32.15l-2.75-1.41l-0.76-2.99l1.71-2.49
		l1.84-3.42l-2.53-4.5l-3.81-0.22l-3.09,0.15l-2.16-2.21l0.23-3.01l-0.12-3.88l-4.45-2.64l-3.41,1.71l-2.6,1.67l-2.98-0.84
		l-1.31-2.72l-2.04-3.3L119.77,2l-2.09,3.18l-1.42,2.75l-3,0.76l-2.49-1.7l-3.42-1.84l-4.52,2.52l-0.22,3.8l0.15,3.08l-2.22,2.16
		l-3.01-0.23l-3.89,0.12l-2.65,4.44l1.71,3.4l1.68,2.6l-0.84,2.97l-2.73,1.31l-3.31,2.04l-0.07,5.16l3.19,2.09l2.75,1.41l0.76,2.99
		l-1.71,2.49l-1.84,3.42l2.53,4.5l3.81,0.22l3.09-0.15l2.16,2.21l-0.23,3.01l0.11,3.88l4.45,2.64l3.41-1.71l2.6-1.67l2.98,0.84
		l1.31,2.72l2.04,3.3l5.17,0.07l2.09-3.18l1.42-2.75l3-0.76l2.49,1.7l3.42,1.84l4.52-2.52l0.22-3.8l-0.15-3.08l2.22-2.16l3.01,0.23
		l3.89-0.12l2.65-4.44l-1.71-3.4l-1.68-2.6l0.84-2.97l2.73-1.31l3.31-2.04l0.07-5.16L153.16,32.15z"/>
	<g>
		<path class="st2" d="M79.39,100.9c-7.08,1.99-14.45-2.14-16.43-9.2c-1.98-7.06,2.17-14.42,9.24-16.41
			c7.08-1.99,14.45,2.14,16.43,9.2C90.61,91.55,86.47,98.91,79.39,100.9z M71.01,71.07c-9.41,2.64-14.92,12.43-12.29,21.82
			c2.63,9.39,12.43,14.88,21.85,12.24S95.5,92.69,92.86,83.3C90.23,73.92,80.43,68.43,71.01,71.07z"/>
		<path class="st2" d="M80.87,106.2c-10.01,2.81-20.43-3.03-23.23-13.01c-2.8-9.99,3.06-20.39,13.07-23.2S91.14,73.01,93.95,83
			C96.75,92.98,90.88,103.39,80.87,106.2z M101.08,82.31l-2.36-0.95l-0.84-2.39l1.21-2.16l1.26-2.93l-2.4-3.5l-3.13,0.11l-2.52,0.35
			l-1.93-1.65l-0.03-2.48l-0.38-3.16l-3.83-1.83l-2.66,1.65l-2.01,1.56l-2.5-0.46l-1.27-2.13l-1.92-2.55l-4.24,0.33l-1.48,2.76
			l-0.96,2.35l-2.4,0.85l-2.17-1.21l-2.94-1.25l-3.51,2.4l0.1,3.13l0.35,2.51l-1.66,1.93l-2.48,0.04l-3.17,0.38l-1.84,3.83
			l1.65,2.65l1.56,2l-0.47,2.5l-2.13,1.27l-2.56,1.92l0.33,4.23l2.76,1.47l2.36,0.95l0.84,2.39l-1.21,2.16l-1.26,2.93l2.4,3.5
			l3.13-0.1l2.52-0.35l1.93,1.65l0.03,2.48l0.38,3.16l3.83,1.83l2.66-1.65l2.01-1.56l2.5,0.46l1.27,2.13l1.92,2.55l4.24-0.33
			l1.48-2.76l0.96-2.35l2.4-0.85l2.17,1.21l2.94,1.25l3.51-2.4l-0.1-3.13l-0.35-2.51l1.66-1.93l2.48-0.04l3.17-0.39l1.84-3.83
			l-1.65-2.65l-1.56-2l0.47-2.5l2.13-1.27l2.56-1.92l-0.33-4.23L101.08,82.31z"/>
		<path class="st2" d="M154.29,84.49c1.98-7.06,9.35-11.19,16.43-9.2c7.08,1.99,11.23,9.35,9.24,16.41
			c-1.98,7.06-9.35,11.19-16.43,9.2S152.31,91.55,154.29,84.49z M150.06,83.3c-2.63,9.39,2.88,19.18,12.29,21.82
			c9.41,2.64,19.21-2.85,21.85-12.24c2.63-9.39-2.88-19.18-12.29-21.82C162.49,68.43,152.69,73.92,150.06,83.3z"/>
		<path class="st2" d="M148.97,83c2.8-9.99,13.23-15.82,23.23-13.01s15.87,13.22,13.07,23.2c-2.8,9.99-13.22,15.82-23.23,13.01
			C152.04,103.39,146.17,92.98,148.97,83z M139.08,83.78l-0.33,4.23l2.56,1.92l2.13,1.27l0.47,2.5l-1.56,2l-1.65,2.65l1.84,3.83
			l3.17,0.39l2.48,0.04l1.66,1.93l-0.35,2.51l-0.1,3.13l3.51,2.4l2.94-1.25l2.17-1.21l2.4,0.85l0.96,2.35l1.48,2.76l4.24,0.33
			l1.92-2.55l1.27-2.13l2.5-0.46l2.01,1.56l2.66,1.65l3.83-1.83l0.38-3.16l0.03-2.48l1.93-1.65l2.52,0.35l3.13,0.1l2.4-3.5
			l-1.26-2.93l-1.21-2.16l0.84-2.39l2.36-0.95l2.76-1.47l0.33-4.23l-2.56-1.92l-2.13-1.27l-0.47-2.5l1.56-2l1.65-2.65l-1.84-3.83
			l-3.17-0.38l-2.48-0.04l-1.66-1.93l0.35-2.51l0.1-3.13l-3.51-2.4l-2.94,1.25l-2.17,1.21l-2.4-0.85l-0.96-2.35l-1.48-2.76
			l-4.24-0.33l-1.92,2.55l-1.27,2.13l-2.5,0.46l-2.01-1.56l-2.66-1.65l-3.83,1.83l-0.38,3.16l-0.03,2.48l-1.93,1.65l-2.52-0.35
			l-3.13-0.11l-2.4,3.5l1.26,2.93l1.21,2.16l-0.84,2.39l-2.36,0.95L139.08,83.78z"/>
	</g>
	<g>
		<path class="st1" d="M32.59,187.95h-2.66v8h-1.94v-8h-2.65v-1.86h7.25V187.95z"/>
		<path class="st1" d="M42.33,194.18H38.4l-0.59,1.77h-2.1l3.45-9.85h2.41l3.46,9.85h-2.11L42.33,194.18z M41.72,192.36l-1.35-4.03
			l-1.35,4.03H41.72z"/>
		<path class="st1" d="M55.31,194.09v1.86h-5.7v-9.85h1.94v8H55.31z"/>
		<path class="st1" d="M65.74,194.09v1.86h-5.7v-9.85h1.94v8H65.74z"/>
		<path class="st1" d="M76.56,194.09v1.86h-6.1v-9.85h6.03v1.86H72.4v2.1h3.73v1.83H72.4v2.21H76.56z"/>
		<path class="st1" d="M84.97,192.53h-1.48v3.42h-1.94v-9.85h3.94c1.82,0,3.28,1.46,3.28,3.27c0,1.24-0.77,2.35-1.9,2.87l2.18,3.72
			h-2.1L84.97,192.53z M83.49,190.82h2c0.73,0,1.34-0.65,1.34-1.46s-0.61-1.45-1.34-1.45h-2V190.82z"/>
		<path class="st1" d="M106.71,194.18h-3.93l-0.59,1.77h-2.1l3.45-9.85h2.41l3.46,9.85h-2.11L106.71,194.18z M106.1,192.36
			l-1.35-4.03l-1.35,4.03H106.1z"/>
		<path class="st1" d="M113.63,192.72v-6.63h1.93v6.48c0,0.96,0.51,1.68,1.83,1.68s1.83-0.72,1.83-1.68v-6.48h1.94v6.63
			c0,2.13-1.6,3.42-3.77,3.42C115.23,196.15,113.63,194.85,113.63,192.72z"/>
		<path class="st1" d="M133.05,187.95h-2.66v8h-1.94v-8h-2.65v-1.86h7.25V187.95z"/>
		<path class="st1" d="M136.74,191.02c0-2.89,2.27-5.12,5.11-5.12c2.84,0,5.12,2.24,5.12,5.12c0,2.87-2.28,5.12-5.12,5.12
			C139.01,196.15,136.74,193.89,136.74,191.02z M145.03,191.02c0-1.9-1.39-3.24-3.18-3.24s-3.18,1.34-3.18,3.24
			c0,1.89,1.39,3.22,3.18,3.22S145.03,192.91,145.03,191.02z"/>
		<path class="st1" d="M161.61,195.95h-1.93v-6.39l-2.77,4.58h-0.22l-2.77-4.56v6.38h-1.94v-9.85h2l2.83,4.66l2.82-4.66h2V195.95z"
			/>
		<path class="st1" d="M166.61,191.02c0-2.89,2.27-5.12,5.11-5.12c2.84,0,5.12,2.24,5.12,5.12c0,2.87-2.28,5.12-5.12,5.12
			C168.88,196.15,166.61,193.89,166.61,191.02z M174.9,191.02c0-1.9-1.39-3.24-3.18-3.24c-1.79,0-3.18,1.34-3.18,3.24
			c0,1.89,1.39,3.22,3.18,3.22C173.51,194.24,174.9,192.91,174.9,191.02z"/>
		<path class="st1" d="M187.79,187.95h-2.66v8h-1.94v-8h-2.65v-1.86h7.25V187.95z"/>
		<path class="st1" d="M195.92,192.53h-1.48v3.42h-1.94v-9.85h3.94c1.82,0,3.28,1.46,3.28,3.27c0,1.24-0.77,2.35-1.9,2.87l2.18,3.72
			h-2.1L195.92,192.53z M194.45,190.82h2c0.73,0,1.34-0.65,1.34-1.46s-0.61-1.45-1.34-1.45h-2V190.82z"/>
		<path class="st1" d="M206.71,186.09v9.85h-1.94v-9.85H206.71z"/>
		<path class="st1" d="M218.42,194.09v1.86h-6.66v-1.55l4.1-6.45h-4v-1.86h6.48v1.53l-4.1,6.46H218.42z"/>
	</g>
	<g>
		<path class="st2" d="M14.72,173.53v-45.04H2v45.04H14.72z M19.85,138.14h17.27v-9.66H19.85V138.14z M19.85,155.83h12.83v-9.6
			H19.85V155.83z"/>
		<path class="st2" d="M60.21,151.59l7.29-11.58l-7.64-11.52H45.63L60.21,151.59z M63.07,156.59v16.93H75.9v-17.46l17.97-27.58
			H79.75L63.07,156.59z"/>
		<path class="st2" d="M116.73,173.53v-45.04h-12.72v45.04H116.73z M121.86,138.14h17.27v-9.66h-17.27V138.14z M121.86,155.83h12.83
			v-9.6h-12.83V155.83z"/>
	</g>
	<path class="st2" d="M175.64,146.12l-4.9-1.28c-0.33-0.08-0.96-0.24-0.96-0.24c-4.6-1.16-5.98-2.03-5.98-3.66
		c0-1.63,1.17-3.38,5.13-3.38c4.73,0,8.69,1.34,12.83,4.19l5.95-9.31c-4.96-3.43-10.56-5.18-18.49-5.18
		c-11.08,0-18.32,5.7-18.32,14.43c0,8.67,4.67,11.64,14.41,14.02l4.96,1.16c3.91,1.11,5.13,2.21,5.13,3.67
		c0,2.21-1.52,2.68-6.07,2.68c-4.2,0-10.56-1.8-13.94-4.19l-5.89,9.54c4.84,3.2,12.13,5.64,19.6,5.64
		c11.55,0,19.13-4.42,19.13-14.32C188.24,152.29,184.39,148.74,175.64,146.12z"/>
	<g>
		<polygon class="st2" points="223.83,128.48 212.91,128.48 212.97,128.61 197.96,173.53 210.56,173.53 		"/>
		<polygon class="st2" points="228.26,132.56 222.43,151.48 228.7,173.53 242,173.53 		"/>
	</g>
</g>
</svg>
