<?xml version="1.0" encoding="utf-8"?>
<!-- Generator: Adobe Illustrator 24.1.0, SVG Export Plug-In . SVG Version: 6.00 Build 0)  -->
<svg version="1.1" id="Capa_1" xmlns="http://www.w3.org/2000/svg" xmlns:xlink="http://www.w3.org/1999/xlink" x="0px" y="0px"
	 viewBox="0 0 103.59 103.44" style="enable-background:new 0 0 103.59 103.44;" xml:space="preserve">
<style type="text/css">
	.st0{opacity:0.5;}
	.st1{fill:#E6AE4C;}
	.st2{fill:#FFFFFF;}
	.st3{fill:none;stroke:#E6AE4C;stroke-width:2;stroke-miterlimit:10;}
	.st4{fill:none;stroke:#FFFFFF;stroke-width:2;stroke-linecap:round;stroke-linejoin:round;stroke-miterlimit:10;}
	.st5{fill:#009CC9;}
	.st6{opacity:0.7;}
	.st7{fill:#B0B0AF;}
	.st8{fill:#EFEFEF;}
	.st9{fill:#C1C1C1;}
	.st10{fill:#D39B40;}
	.st11{fill:#D8D8D8;}
	.st12{fill:#2A2A2A;}
	.st13{fill:#555555;}
	.st14{fill:#CCCACD;}
	.st15{fill:#D4753A;}
	.st16{fill:#D7D7D7;}
	.st17{fill:#DCDCDC;}
	.st18{fill:#446C7E;}
	.st19{fill:#ECB843;}
	.st20{fill:#C5B178;}
	.st21{fill:#D7AC54;}
	.st22{fill:#DAB743;}
	.st23{clip-path:url(#SVGID_4_);}
	.st24{fill:#EAEAEA;}
	.st25{opacity:0.9;fill:url(#SVGID_11_);}
	.st26{fill:#232323;}
	.st27{fill:#666666;}
	.st28{fill:none;stroke:#FFFFFF;stroke-miterlimit:10;}
	.st29{fill:#1E1E1E;}
	.st30{clip-path:url(#SVGID_15_);fill:url(#SVGID_16_);}
	.st31{clip-path:url(#SVGID_18_);fill:url(#SVGID_19_);}
	.st32{clip-path:url(#SVGID_21_);fill:url(#SVGID_22_);}
	.st33{clip-path:url(#SVGID_24_);fill:url(#SVGID_25_);}
	.st34{clip-path:url(#SVGID_27_);fill:url(#SVGID_28_);}
	.st35{clip-path:url(#SVGID_30_);fill:url(#SVGID_31_);}
	.st36{clip-path:url(#SVGID_33_);fill:url(#SVGID_34_);}
</style>
<g>
	<path class="st1" d="M20.89,60.87c0,4.6-3.73,8.33-8.33,8.33c-4.6,0-8.33-3.73-8.33-8.33s3.73-8.33,8.33-8.33
		C17.16,52.54,20.89,56.27,20.89,60.87z"/>
	<path class="st1" d="M44.21,69.21c0,4.6-3.73,8.33-8.33,8.33c-4.6,0-8.33-3.73-8.33-8.33s3.73-8.33,8.33-8.33
		C40.48,60.87,44.21,64.6,44.21,69.21z"/>
	<path class="st1" d="M25.89,92.53c0,4.6-3.73,8.33-8.33,8.33c-4.6,0-8.33-3.73-8.33-8.33s3.73-8.33,8.33-8.33
		C22.16,84.2,25.89,87.93,25.89,92.53z"/>
	<g>
		<path class="st18" d="M14.23,60.87c0,0.92-0.75,1.67-1.67,1.67c-0.92,0-1.67-0.75-1.67-1.67c0-0.92,0.75-1.67,1.67-1.67
			C13.48,59.21,14.23,59.95,14.23,60.87z"/>
		<path class="st18" d="M37.55,69.21c0,0.92-0.75,1.67-1.67,1.67c-0.92,0-1.67-0.75-1.67-1.67c0-0.92,0.75-1.67,1.67-1.67
			C36.8,67.54,37.55,68.28,37.55,69.21z"/>
		<path class="st18" d="M19.22,92.53c0,0.92-0.75,1.67-1.67,1.67c-0.92,0-1.67-0.75-1.67-1.67s0.75-1.67,1.67-1.67
			C18.48,90.86,19.22,91.61,19.22,92.53z"/>
	</g>
	<path class="st15" d="M22.89,6.74l2.46-1.93l4.45,1.84l0.38,3.11l2.41,2.41l3.11,0.38l1.84,4.45l-1.93,2.47v3.41l1.93,2.46
		l-1.84,4.45l-3.11,0.38l-2.41,2.41l-0.38,3.11l-4.45,1.84l-2.46-1.93h-3.41l-2.47,1.93l-4.45-1.84l-0.38-3.11l-2.41-2.41L6.66,29.8
		l-1.84-4.45l1.93-2.46v-3.41l-1.93-2.47l1.84-4.45l3.11-0.38l2.41-2.41l0.38-3.11l4.45-1.84l2.47,1.93H22.89z"/>
	<path class="st19" d="M28.1,21.18c0,3.82-3.1,6.92-6.92,6.92c-3.82,0-6.92-3.1-6.92-6.92c0-3.82,3.1-6.92,6.92-6.92
		C25,14.26,28.1,17.36,28.1,21.18z"/>
	<path class="st1" d="M72.07,14.76l5.24-5.53l4.62,1.5l0.99,7.56l3.16,2.29l7.5-1.39l2.85,3.93l-3.65,6.69l1.21,3.71l6.88,3.28v4.85
		l-6.88,3.28l-1.21,3.71l3.64,6.69l-2.85,3.93l-7.5-1.39l-3.16,2.29l-0.99,7.56l-4.62,1.5l-5.24-5.53h-3.9l-5.24,5.53l-4.62-1.5
		l-0.99-7.56l-3.16-2.29l-7.5,1.39l-2.85-3.93l3.64-6.69l-1.21-3.71l-6.88-3.28v-4.85l6.88-3.28l1.21-3.71l-3.64-6.69l2.85-3.93
		l7.5,1.39l3.16-2.29l0.99-7.56l4.62-1.5l5.24,5.53H72.07z"/>
	<path class="st20" d="M94.27,77.85l5.28,1.5l1.15,3.46l-3.33,4.37l-0.38,1.88l1.33,5.33l-2.41,2.73l-5.45-0.7l-1.82,0.6l-3.94,3.83
		l-3.57-0.73l-2.12-5.08l-1.43-1.27l-5.28-1.5l-1.15-3.46l3.33-4.37l0.38-1.88l-1.33-5.33l2.42-2.73l5.45,0.7l1.82-0.61l3.94-3.83
		l3.57,0.73l2.12,5.07L94.27,77.85z"/>
	<path class="st1" d="M92.53,85.87c0,3.68-2.98,6.66-6.66,6.66c-3.68,0-6.66-2.98-6.66-6.66c0-3.68,2.98-6.66,6.66-6.66
		C89.55,79.2,92.53,82.19,92.53,85.87z"/>
	<path class="st15" d="M84.2,39.22c0,8.28-6.71,14.99-14.99,14.99c-8.28,0-14.99-6.71-14.99-14.99s6.71-14.99,14.99-14.99
		C77.49,24.22,84.2,30.93,84.2,39.22z"/>
	<path class="st21" d="M77.54,39.22c0,4.6-3.73,8.33-8.33,8.33c-4.6,0-8.33-3.73-8.33-8.33s3.73-8.33,8.33-8.33
		C73.81,30.89,77.54,34.62,77.54,39.22z"/>
	<path class="st1" d="M100.86,7.56c0,1.84-1.49,3.33-3.33,3.33c-1.84,0-3.33-1.49-3.33-3.33s1.49-3.33,3.33-3.33
		C99.37,4.23,100.86,5.72,100.86,7.56z"/>
	<path class="st22" d="M47.55,5.89c0,0.92-0.75,1.67-1.67,1.67s-1.67-0.75-1.67-1.67s0.75-1.67,1.67-1.67S47.55,4.97,47.55,5.89z"/>
	<path d="M21.18,29.77c4.74,0,8.59-3.84,8.59-8.59c0-4.74-3.84-8.59-8.59-8.59c-4.74,0-8.59,3.84-8.59,8.59
		C12.6,25.92,16.44,29.76,21.18,29.77z M21.18,15.93c2.9,0,5.26,2.35,5.26,5.25c0,2.9-2.35,5.26-5.26,5.26
		c-2.9,0-5.25-2.35-5.25-5.26C15.93,18.28,18.28,15.93,21.18,15.93z"/>
	<path d="M95.89,76.57l-0.64-16.81l3.14-4.31l-3.8-6.99l0.76-2.35l7.18-3.42v-6.96l-7.18-3.42l-0.76-2.35l3.8-6.99l-4.09-5.63
		l-7.82,1.45l-2-1.45l-1.03-7.89l-6.61-2.15l-5.47,5.77h-2.47l-5.47-5.77l-6.62,2.15l-0.32,2.46l-23.14-1.38l-1.56-1.56l-0.43-3.5
		l-6.24-2.6l-2.78,2.17h-2.26L17.27,2.9l-6.25,2.59l-0.43,3.5l-1.6,1.6l-3.5,0.43l-2.6,6.25l2.18,2.79v2.26L2.9,25.09l2.06,4.98
		l-2.3,29.48c-0.05,0.38-0.08,0.75-0.09,1.13v0.06H2.56v0.13c0,3.38,1.7,6.53,4.53,8.38c2.83,1.85,6.41,2.13,9.5,0.76l9.86-4.11
		c-1.6,4.51,0.25,9.52,4.39,11.92l-15.23,4.91c-5.04,1-8.49,5.67-7.99,10.78c0.5,5.11,4.8,9.01,9.93,9.02h0.09l61.35-3.22l0.94,2.25
		l5.3,1.09l4.3-4.18l1.09-0.36l5.95,0.77l3.59-4.05l-1.47-5.81l0.23-1.13l3.64-4.77l-1.7-5.13L95.89,76.57z M59.82,11.99l2.62-0.85
		l5.01,5.29h5.33l5.01-5.29l2.62,0.85l0.94,7.22l4.31,3.14l7.16-1.33l1.61,2.22l-3.48,6.4l1.65,5.07l6.58,3.13v2.75l-6.58,3.13
		l-1.65,5.07l3.48,6.4l-1.61,2.22l-7.16-1.33l-4.31,3.14l-0.94,7.22l-2.62,0.85l-5.01-5.29h-5.33l-5.01,5.29l-2.62-0.85l-0.95-7.22
		l-4.31-3.14l-7.16,1.33l-1.62-2.22l3.48-6.4l-1.65-5.07l-6.58-3.13v-2.75l6.58-3.13l1.65-5.07l-3.48-6.4l1.62-2.22l7.16,1.33
		l4.31-3.14L59.82,11.99z M6.73,16.75l1.1-2.67l2.71-0.33l3.22-3.21l0.33-2.71l2.67-1.1l2.15,1.68h4.56l2.14-1.68l2.67,1.1
		l0.33,2.71l3.21,3.22l2.71,0.33l1.1,2.67l-1.68,2.15v4.56l1.68,2.15l-1.1,2.67l-2.71,0.33l-3.22,3.22l-0.33,2.71l-2.67,1.1
		l-2.15-1.68H18.9l-2.15,1.68l-2.67-1.1l-0.33-2.71l-3.22-3.24l-2.71-0.33l-1.1-2.67l1.68-2.15V18.9L6.73,16.75z M5.89,60.9
		l0.02-0.26c0.34-3.43,3.37-5.96,6.81-5.66c3.44,0.3,5.99,3.31,5.73,6.75c-0.26,3.44-3.25,6.02-6.69,5.8
		C8.32,67.31,5.7,64.35,5.89,60.9z M35.88,62.54c3.68,0,6.66,2.98,6.66,6.66c0,3.68-2.98,6.66-6.66,6.66
		c-3.68,0-6.66-2.98-6.66-6.66C29.22,65.52,32.2,62.54,35.88,62.54z M10.89,92.53c0.01-2.59,1.51-4.94,3.86-6.03l1.61-0.52
		c2.47-0.44,4.97,0.55,6.48,2.55c1.51,2,1.76,4.68,0.66,6.94c-1.1,2.25-3.38,3.69-5.89,3.72h-0.08
		C13.86,99.18,10.89,96.2,10.89,92.53z M25.34,98.78c1.82-2.25,2.57-5.18,2.06-8.02c-0.51-2.85-2.23-5.33-4.72-6.8l16.27-5.23
		c3.52-1.1,6.14-4.04,6.84-7.65c0.7-3.62-0.65-7.32-3.51-9.64c-2.86-2.32-6.76-2.89-10.16-1.47L22,64.17
		c1.46-4.16,0.02-8.79-3.55-11.38c-3.57-2.59-8.41-2.53-11.92,0.14L8.2,31.68L9,31.78l1.6,1.6l0.43,3.5l6.25,2.59l2.78-2.17h2.26
		l2.78,2.17l6.23-2.58l0.43-3.5l1.6-1.6l3.5-0.43l2.59-6.25l-2.17-2.78v-2.27l2.17-2.78l-1.28-3.09l17.87,1.06l-0.28,2.12l-2,1.45
		l-7.82-1.45l-4.09,5.63l3.8,6.99l-0.76,2.34l-7.18,3.42v6.96l7.18,3.42l0.76,2.35l-3.8,6.99l4.09,5.63l7.82-1.45l2,1.45l1.03,7.89
		l6.62,2.15l5.47-5.77h2.47l5.47,5.77l6.62-2.15l1.03-7.89l2-1.45l5.48,1.02l0.4,10.43l-0.43-1.02l-5.3-1.09l-4.31,4.17l-1.09,0.37
		l-5.95-0.77l-3.59,4.04l1.47,5.81l-0.23,1.13l-3.64,4.77l1.71,5.13l5.77,1.64l0.86,0.77v0.01L25.34,98.78z M95.82,86.47l-0.54,2.62
		l1.22,4.84l-1.25,1.41l-4.95-0.63l-2.54,0.84l-3.58,3.48l-1.84-0.38l-1.92-4.61l-2-1.78l-4.8-1.37l-0.6-1.79l3.03-3.97l0.54-2.62
		l-1.22-4.84l1.25-1.41l4.95,0.64l2.54-0.84l3.59-3.48l1.84,0.38l1.92,4.61l2,1.77l4.8,1.36l0.59,1.79L95.82,86.47z"/>
	<path d="M15.89,60.87c0,1.84-1.49,3.33-3.33,3.33s-3.33-1.49-3.33-3.33c0-1.84,1.49-3.33,3.33-3.33S15.89,59.03,15.89,60.87z"/>
	<path d="M39.22,69.21c0,1.84-1.49,3.33-3.33,3.33c-1.84,0-3.33-1.49-3.33-3.33c0-1.84,1.49-3.33,3.33-3.33
		C37.72,65.87,39.22,67.36,39.22,69.21z"/>
	<path d="M20.89,92.53c0,1.84-1.49,3.33-3.33,3.33c-1.84,0-3.33-1.49-3.33-3.33s1.49-3.33,3.33-3.33
		C19.4,89.2,20.89,90.69,20.89,92.53z"/>
	<path d="M85.87,77.54c-4.6,0-8.33,3.73-8.33,8.33s3.73,8.33,8.33,8.33c4.6,0,8.33-3.73,8.33-8.33
		C94.19,81.27,90.46,77.54,85.87,77.54z M85.87,90.86c-2.76,0-5-2.24-5-5c0-2.76,2.24-5,5-5c2.76,0,5,2.24,5,5
		C90.86,88.63,88.63,90.86,85.87,90.86z"/>
	<path d="M69.21,55.88c9.2,0,16.66-7.46,16.66-16.66s-7.46-16.66-16.66-16.66s-16.66,7.46-16.66,16.66
		C52.55,48.41,60.01,55.87,69.21,55.88z M69.21,25.89c7.36,0,13.33,5.97,13.33,13.33s-5.97,13.33-13.33,13.33
		c-7.36,0-13.33-5.97-13.33-13.33C55.88,31.86,61.85,25.9,69.21,25.89z"/>
	<path d="M69.21,49.21c5.52,0,10-4.48,10-10s-4.48-10-10-10c-5.52,0-10,4.48-10,10C59.21,44.73,63.69,49.21,69.21,49.21z
		 M69.21,32.55c3.68,0,6.66,2.98,6.66,6.66c0,3.68-2.98,6.66-6.66,6.66c-3.68,0-6.66-2.98-6.66-6.66
		C62.54,35.54,65.52,32.55,69.21,32.55z"/>
	<path d="M92.53,7.56c0,2.76,2.24,5,5,5c2.76,0,5-2.24,5-5s-2.24-5-5-5C94.77,2.56,92.53,4.8,92.53,7.56z M99.19,7.56
		c0,0.92-0.75,1.67-1.67,1.67c-0.92,0-1.67-0.75-1.67-1.67s0.75-1.67,1.67-1.67C98.45,5.89,99.19,6.64,99.19,7.56z"/>
	<path class="st1" d="M49.21,5.89c0,1.84-1.49,3.33-3.33,3.33s-3.33-1.49-3.33-3.33s1.49-3.33,3.33-3.33S49.21,4.05,49.21,5.89z"/>
</g>
</svg>
